<?xml version="1.0" encoding="UTF-8" standalone="no"?>
<svg xmlns="http://www.w3.org/2000/svg" xml:space="preserve" width="666.66669" height="166.13333">
  <g transform="matrix(1.3333333 0 0 -1.3333333 0 166.13333)">
    <g transform="scale(.1)">
      <path fill="#100f0d" d="m4761.93 915.121 226.03 226.029c8.2 8.21 27.42 27.46-11.48 67.51-16.68 17.18-31.89 25.95-45.19 26.05h-.24c-11.45 0-19.17-6.14-25.21-12.17l-226.56-226.563-226.19 227.583c-18.28 18.3-39.69 14.01-67.29-13.55-28.07-28.22-32.66-49.89-14.45-68.2l226.22-227.564-221.56-221.57-1.58-1.547c-5.39-5.227-13.53-13.113-13.64-25.973-.1-13.261 8.73-28.879 26.26-46.414 14.8-14.812 28.82-22.316 41.7-22.316h.01c14.51.012 23.78 9.308 29.02 14.543l222.4 222.41L4907.6 605.93c2.87-2.86 10.88-9.457 23.74-9.457h.46c14.38.172 29.52 8.515 45.01 24.781 25.52 26.801 29.78 49.129 12.65 66.359zm-816.56 324.699c-167.5-12.74-298.71-160.06-298.71-335.394V350.023c0-32.117 24.42-38.691 61.07-38.691s61.07 6.574 61.07 38.691V905.73c0 109.24 79.47 203.04 180.91 213.54 58.24 5.94 114.22-12.29 157.76-51.56 42.74-38.52 67.26-93.909 67.28-151.972 0-16.617-8.14-70.734-45.28-120.968-28.09-37.958-81.3-83.172-175.65-83.172-.51-.012-1.2 0-1.79 0-24.21 0-44.88-1.141-48.86-58.496-2.67-38.594-2.45-55.852 30.89-60.493 59.47-8.25 120.11 3.375 180.2 34.606 102.61 53.383 171.35 154.535 179.43 264.004 7.02 95.078-27.27 187.831-94.09 254.491-67.07 66.89-159.69 101.15-254.23 94.11zM477.48 872.383c-120.019 17.23-237.054-14.699-332.378-88.074V1114.5h559.531c19.437 0 33.379 3.5 33.379 60.91 0 56.02-22.571 58.24-37.465 58.24H80.9648c-35.9765 0-55.0117-29.1-55.0117-61.36V630.379c0-28.414 18.0117-38.043 51.5352-44.68 29.3477-5.808 46.3907-2.414 59.2227 11.809l1.351 2.082c59.028 85.082 187.465 167.5 309.543 152.558 145.715-17.828 263.043-134.07 279.09-276.386 10.239-90.809-17.472-178.102-77.976-245.801-59.731-66.84-145.239-105.18-234.563-105.18-132.328 0-247.984 85.059-296.144 208.508-7.129 18.277-19.1722 31.809-71.3011 12.856C-1.1875 328.73-3.96484 308.574 2.64062 290.32 65.3398 117.672 230.711 1.66016 414.137 1.66016c124.23 0 243.121 53.26174 326.187 146.14084 84.164 94.078 122.391 215.359 108.313 341.504-22.063 197.461-174.91 354.988-371.157 383.078Zm2419.13-739.531c-270.27 0-490.16 219.882-490.16 490.148 0 270.277 219.89 490.16 490.16 490.16 270.25 0 490.12-219.883 490.12-490.16 0-270.266-219.87-490.148-490.12-490.148zm0 1113.158c-343.55 0-623.04-279.483-623.04-623.01S2553.06 0 2896.61 0c343.53 0 623 279.473 623 623s-279.47 623.01-623 623.01zM1548.3 132.852c-270.27 0-490.15 219.882-490.15 490.148 0 270.277 219.88 490.16 490.15 490.16 270.26 0 490.13-219.883 490.13-490.16 0-270.266-219.87-490.148-490.13-490.148zm0 1113.158c-343.54 0-623.038-279.483-623.038-623.01S1204.76 0 1548.3 0c343.53 0 623.01 279.473 623.01 623s-279.48 623.01-623.01 623.01"/>
    </g>
  </g>
</svg>