<svg xmlns="http://www.w3.org/2000/svg" fill="none" viewBox="0 0 50 50" id="500px-Logo-2--Streamline-Logos-Block" height="50" width="50">
  <desc>
    500px Logo 2 Streamline Icon: https://streamlinehq.com
  </desc>
  <path fill="#000000" fill-rule="evenodd" d="M10.416666666666668 2.0833333333333335a8.333333333333334 8.333333333333334 0 0 0 -8.333333333333334 8.333333333333334v29.166666666666668a8.333333333333334 8.333333333333334 0 0 0 8.333333333333334 8.333333333333334h29.166666666666668a8.333333333333334 8.333333333333334 0 0 0 8.333333333333334 -8.333333333333334V10.416666666666668a8.333333333333334 8.333333333333334 0 0 0 -8.333333333333334 -8.333333333333334H10.416666666666668Zm-1.6500000000000001 13.929166666666667c0 -0.6145833333333334 0.5 -1.1145833333333335 1.1145833333333335 -1.1145833333333335h6.897916666666667v2.229166666666667H10.995833333333334v1.2083333333333333A4.8291666666666675 4.8291666666666675 0 1 1 8.333333333333334 23.664583333333336l2.1833333333333336 -0.44375000000000003a2.6020833333333337 2.6020833333333337 0 1 0 0.31875000000000003 -1.8625000000000003 1.1145833333333335 1.1145833333333335 0 0 1 -2.06875 -0.5750000000000001v-4.770833333333334Zm22.870833333333334 14.485416666666667a1.1145833333333335 1.1145833333333335 0 0 0 -1.1145833333333335 1.1145833333333335v4.458333333333334a1.1145833333333335 1.1145833333333335 0 0 1 -2.229166666666667 0v-4.458333333333334a3.34375 3.34375 0 1 1 3.34375 3.34375 1.1145833333333335 1.1145833333333335 0 0 1 0 -2.229166666666667 1.1145833333333335 1.1145833333333335 0 0 0 0 -2.229166666666667Zm3.66875 -1.9020833333333336a1.1145833333333335 1.1145833333333335 0 0 1 1.5770833333333334 0l1.4395833333333334 1.4416666666666667 1.4416666666666667 -1.4416666666666667a1.1145833333333335 1.1145833333333335 0 0 1 1.5750000000000002 1.5770833333333334l-1.4395833333333334 1.4395833333333334 1.4395833333333334 1.4416666666666667a1.1145833333333335 1.1145833333333335 0 1 1 -1.5750000000000002 1.5750000000000002l-1.4416666666666667 -1.4395833333333334 -1.4395833333333334 1.4395833333333334a1.1145833333333335 1.1145833333333335 0 1 1 -1.5770833333333334 -1.5750000000000002l1.4416666666666667 -1.4416666666666667 -1.4416666666666667 -1.4395833333333334a1.1145833333333335 1.1145833333333335 0 0 1 0 -1.5770833333333334ZM20.125 21.583333333333332a3.7145833333333336 3.7145833333333336 0 1 1 7.429166666666667 0 3.7145833333333336 3.7145833333333336 0 0 1 -7.429166666666667 0Zm3.7145833333333336 -5.941666666666666a5.9437500000000005 5.9437500000000005 0 1 0 5.9437500000000005 5.941666666666666 5.9437500000000005 5.9437500000000005 0 1 0 11.885416666666668 0 5.9437500000000005 5.9437500000000005 0 0 0 -11.885416666666668 0 5.9437500000000005 5.9437500000000005 0 0 0 -5.9437500000000005 -5.941666666666666Zm11.885416666666668 2.229166666666667a3.7145833333333336 3.7145833333333336 0 1 0 0 7.427083333333334 3.7145833333333336 3.7145833333333336 0 0 0 0 -7.429166666666667Z" clip-rule="evenodd" stroke-width="2.0833"></path>
</svg>