<svg xmlns="http://www.w3.org/2000/svg" fill="none" viewBox="0 0 500 500" id="500px-Logo-2--Streamline-Logos-Block" height="500" width="500">
  <desc>
    500px Logo 2 Streamline Icon: https://streamlinehq.com
  </desc>
  <path fill="#000000" fill-rule="evenodd" d="M104.16666666666666 20.833333333333332a83.33333333333333 83.33333333333333 0 0 0 -83.33333333333333 83.33333333333333v291.66666666666663a83.33333333333333 83.33333333333333 0 0 0 83.33333333333333 83.33333333333333h291.66666666666663a83.33333333333333 83.33333333333333 0 0 0 83.33333333333333 -83.33333333333333V104.16666666666666a83.33333333333333 83.33333333333333 0 0 0 -83.33333333333333 -83.33333333333333H104.16666666666666Zm-16.5 139.29166666666666c0 -6.145833333333333 4.999999999999999 -11.145833333333334 11.145833333333334 -11.145833333333334h68.97916666666666v22.291666666666668H109.95833333333331v12.083333333333332A48.291666666666664 48.291666666666664 0 1 1 83.33333333333333 236.64583333333331l21.833333333333332 -4.4375a26.020833333333336 26.020833333333336 0 1 0 3.1874999999999996 -18.625 11.145833333333334 11.145833333333334 0 0 1 -20.6875 -5.75v-47.70833333333333Zm228.70833333333331 144.85416666666666a11.145833333333334 11.145833333333334 0 0 0 -11.145833333333334 11.145833333333334v44.583333333333336a11.145833333333334 11.145833333333334 0 0 1 -22.291666666666668 0v-44.583333333333336a33.4375 33.4375 0 1 1 33.4375 33.4375 11.145833333333334 11.145833333333334 0 0 1 0 -22.291666666666668 11.145833333333334 11.145833333333334 0 0 0 0 -22.291666666666668Zm36.68749999999999 -19.020833333333332a11.145833333333334 11.145833333333334 0 0 1 15.770833333333332 0l14.395833333333332 14.416666666666664 14.416666666666664 -14.416666666666664a11.145833333333334 11.145833333333334 0 0 1 15.75 15.770833333333332l-14.395833333333332 14.395833333333332 14.395833333333332 14.416666666666664a11.145833333333334 11.145833333333334 0 1 1 -15.75 15.75l-14.416666666666664 -14.395833333333332 -14.395833333333332 14.395833333333332a11.145833333333334 11.145833333333334 0 1 1 -15.770833333333332 -15.75l14.416666666666664 -14.416666666666664 -14.416666666666664 -14.395833333333332a11.145833333333334 11.145833333333334 0 0 1 0 -15.770833333333332ZM201.25 215.83333333333331a37.14583333333333 37.14583333333333 0 1 1 74.29166666666666 0 37.14583333333333 37.14583333333333 0 0 1 -74.29166666666666 0Zm37.14583333333333 -59.41666666666666a59.4375 59.4375 0 1 0 59.4375 59.41666666666666 59.4375 59.4375 0 1 0 118.85416666666666 0 59.4375 59.4375 0 0 0 -118.85416666666666 0 59.4375 59.4375 0 0 0 -59.4375 -59.41666666666666Zm118.85416666666666 22.291666666666668a37.14583333333333 37.14583333333333 0 1 0 0 74.27083333333333 37.14583333333333 37.14583333333333 0 0 0 0 -74.29166666666666Z" clip-rule="evenodd" stroke-width="20.8333"></path>
</svg>