<?xml version="1.0" encoding="UTF-8"?>
<svg version="1.1" xmlns="http://www.w3.org/2000/svg" width="512" height="512">
<path d="M0 0 C168.96 0 337.92 0 512 0 C512 168.96 512 337.92 512 512 C343.04 512 174.08 512 0 512 C0 343.04 0 174.08 0 0 Z M19 19 C19 175.42 19 331.84 19 493 C175.42 493 331.84 493 493 493 C493 336.58 493 180.16 493 19 C336.58 19 180.16 19 19 19 Z " fill="#000000" transform="translate(0,0)"/>
<path d="M0 0 C32.67 0 65.34 0 99 0 C99 6.6 99 13.2 99 20 C72.93 20 46.86 20 20 20 C20 31.22 20 42.44 20 54 C24.91009876 51.46655008 24.91009876 51.46655008 29.81054688 48.91455078 C42.55130298 42.44310736 58.49840908 41.66225541 72.1875 45.6875 C74.14323495 46.4108195 76.08325268 47.17892144 78 48 C78.8765625 48.36222656 79.753125 48.72445312 80.65625 49.09765625 C93.47379887 54.93280581 102.85636314 64.55022118 108.22265625 77.5859375 C114.04806877 95.67691709 110.91383742 116.27814919 102.46875 133.0390625 C93.55222909 147.97002911 80.01516901 157.66731318 63.359375 162.2578125 C50.46282316 165.1070507 38.41316995 165.41833053 25.375 164.125 C24.17472168 164.00753418 24.17472168 164.00753418 22.95019531 163.88769531 C17.81358748 163.33393462 12.98562422 162.35764138 8 161 C8.62320121 154.56025419 9.64008262 148.32427599 11 142 C11.88816406 142.144375 12.77632812 142.28875 13.69140625 142.4375 C33.16581123 145.26728236 55.5560607 147.28716905 72.72265625 135.8046875 C82.90027493 127.73940477 87.99860813 117.82079739 90 105 C90.75303494 94.30937282 89.81140227 85.59665778 84.375 76.1875 C75.45263749 67.96953453 63.96234985 63.62931806 51.93359375 63.7890625 C40.3428094 64.62248774 30.13986813 70.98187021 22 79 C19.67233244 81.80897145 17.58007537 84.75476686 15.5 87.75 C14.93756592 88.5426123 14.37513184 89.33522461 13.7956543 90.15185547 C11.39200169 93.54675872 9.01880408 96.96144138 6.67578125 100.3984375 C6.06089844 101.29820312 5.44601563 102.19796875 4.8125 103.125 C4.30332031 103.89070313 3.79414062 104.65640625 3.26953125 105.4453125 C2.85058594 105.95835937 2.43164062 106.47140625 2 107 C1.34 107 0.68 107 0 107 C0 71.69 0 36.38 0 0 Z " fill="#000000" transform="translate(69,129)"/>
<path d="M0 0 C11.21229451 9.63502455 19.78059787 21.51728765 21.90234375 36.51953125 C23.12030717 55.24143024 21.07096996 72.02560206 8.203125 86.6875 C-2.6091355 98.36387723 -15.9187165 105.9996583 -32.046875 106.86328125 C-41.02054622 107.12567913 -49.70192023 107.00008155 -58.09765625 103.51953125 C-59.20238281 103.06707031 -60.30710937 102.61460937 -61.4453125 102.1484375 C-76.45221652 95.33899357 -87.12758641 84.69113086 -93.4375 69.23828125 C-99.08365101 53.00308546 -98.36224289 36.59941198 -91.51953125 20.8984375 C-83.16157857 4.61548915 -70.02725539 -5.59783255 -52.61328125 -11.29296875 C-34.42074497 -15.68848087 -14.59028037 -11.6832636 0 0 Z M-67.77734375 20.36328125 C-76.13537211 30.84200337 -78.53290402 42.37518519 -77.09765625 55.51953125 C-74.16390641 66.9782582 -67.38860737 75.7058062 -57.55859375 82.08203125 C-48.38534753 87.4403719 -38.26090369 88.73219904 -27.84765625 86.39453125 C-17.18153441 83.25496319 -8.60320173 77.50257863 -2.4921875 68.03125 C3.30127648 57.10691762 4.50500282 46.12371593 0.93359375 34.28515625 C-3.48652654 22.43119728 -11.53488365 14.79814303 -22.8359375 9.4296875 C-38.29837851 3.2073235 -56.73871195 8.24645751 -67.77734375 20.36328125 Z " fill="#000000" transform="translate(416.09765625,159.48046875)"/>
<path d="M0 0 C3.61613341 2.75839826 6.83402079 5.74003996 10 9 C10.56074219 9.54011719 11.12148438 10.08023438 11.69921875 10.63671875 C22.9118825 22.32025552 26.05144536 38.41205508 26 54 C25.22508266 66.31257556 20.33811848 77.20950514 13 87 C12.58492188 87.59167969 12.16984375 88.18335938 11.7421875 88.79296875 C3.57860437 99.47406404 -10.86558643 107.09125788 -24 109 C-43.47890959 110.32969802 -59.44753172 107.03489746 -74.8125 94.1875 C-87.16624037 82.57096295 -93.36472954 67.09399515 -94.01953125 50.32421875 C-94.21143378 34.22975194 -88.44837738 19.68819989 -77.16796875 8.10546875 C-76.45253906 7.41066406 -75.73710937 6.71585938 -75 6 C-74.45988281 5.43925781 -73.91976562 4.87851563 -73.36328125 4.30078125 C-53.2690907 -14.98356786 -22.43529844 -13.60829578 0 0 Z M-66.84765625 26.23046875 C-73.37705745 35.2946252 -75.13705551 44.96925455 -74 56 C-71.80048316 67.01141763 -66.10324954 76.29325423 -57.0625 83 C-47.00362724 89.399709 -36.03282455 91.24874253 -24.3125 88.9375 C-15.93870045 86.74125796 -9.76534385 82.40593761 -4 76 C-3.154375 75.113125 -2.30875 74.22625 -1.4375 73.3125 C5.58151261 64.78783169 6.83510325 53.59757784 6 43 C3.44816134 30.91157571 -3.08714843 22.20794944 -13 15 C-31.78851894 3.40110864 -53.44781296 10.05433658 -66.84765625 26.23046875 Z " fill="#000000" transform="translate(282,157)"/>
<path d="M0 0 C15.345 -0.12375 15.345 -0.12375 31 -0.25 C35.82431641 -0.30462402 35.82431641 -0.30462402 40.74609375 -0.36035156 C43.30988905 -0.37203964 45.8736918 -0.38223118 48.4375 -0.390625 C49.75685547 -0.41108887 51.07621094 -0.43155273 52.43554688 -0.45263672 C65.47802317 -0.45756958 65.47802317 -0.45756958 71 4 C75.56371128 8.89011044 75.60192199 13.39000307 75.56640625 19.74609375 C75.57260483 20.67543228 75.57880341 21.60477081 75.58518982 22.56227112 C75.59227162 24.52140255 75.58914269 26.48059437 75.57641602 28.43969727 C75.56255744 31.42512621 75.59663621 34.40741386 75.63476562 37.39257812 C75.63571701 39.3020841 75.63385697 41.21159396 75.62890625 43.12109375 C75.64216446 44.00671494 75.65542267 44.89233612 75.66908264 45.80479431 C75.59190203 50.98377152 74.8798455 54.54793954 71.51660156 58.59063721 C66.13111322 63.59531812 59.78967577 63.41074448 52.91015625 63.29296875 C51.96563095 63.28872391 51.02110565 63.28447906 50.04795837 63.28010559 C47.05250676 63.26340933 44.0577458 63.22577406 41.0625 63.1875 C39.02279622 63.17244146 36.98308183 63.1587551 34.94335938 63.14648438 C29.96176409 63.11609644 24.98164854 63.057358 20 63 C20 76.2 20 89.4 20 103 C13.4 103 6.8 103 0 103 C0 69.01 0 35.02 0 0 Z M20 20 C20 27.59 20 35.18 20 43 C31.88 43 43.76 43 56 43 C56 35.41 56 27.82 56 20 C44.12 20 32.24 20 20 20 Z " fill="#000000" transform="translate(273,288)"/>
<path d="M0 0 C7.11905227 5.80683219 13.47374812 12.36285444 19.9375 18.875 C21.10979204 20.05231638 22.28231614 21.22940174 23.45507812 22.40625 C26.30606982 25.26817489 29.15389615 28.13321457 32 31 C34.85779017 29.70280076 36.91008536 28.3363174 39.11621094 26.11083984 C39.69651062 25.5303891 40.2768103 24.94993835 40.87469482 24.35189819 C41.48838928 23.72788116 42.10208374 23.10386414 42.734375 22.4609375 C43.69141327 21.49965439 43.69141327 21.49965439 44.66778564 20.51895142 C46.69994069 18.47562179 48.72502218 16.42544018 50.75 14.375 C52.1284453 12.9865214 53.50734636 11.5984951 54.88671875 10.2109375 C58.26311894 6.81251303 61.63319288 3.40792746 65 0 C66.12120157 0.9550972 67.24156401 1.91117951 68.36157227 2.86767578 C68.98556412 3.3999881 69.60955597 3.93230042 70.25245667 4.48074341 C72.23224136 6.20190298 74.10154154 8.001573 75.9375 9.875 C76.52402344 10.47054688 77.11054688 11.06609375 77.71484375 11.6796875 C78.35099609 12.33324219 78.35099609 12.33324219 79 13 C77.70280076 15.85779017 76.3363174 17.91008536 74.11083984 20.11621094 C73.5303891 20.69651062 72.94993835 21.2768103 72.35189819 21.87469482 C71.72788116 22.48838928 71.10386414 23.10208374 70.4609375 23.734375 C69.82008209 24.37240051 69.17922668 25.01042603 68.51895142 25.66778564 C66.47562179 27.69994069 64.42544018 29.72502218 62.375 31.75 C60.9865214 33.1284453 59.5984951 34.50734636 58.2109375 35.88671875 C54.81251303 39.26311894 51.40792746 42.63319288 48 46 C51.81741795 50.5872122 55.7858426 54.88059085 60.08984375 59.01171875 C61.21476907 60.10943571 62.33910189 61.20776012 63.46289062 62.30664062 C65.21085065 64.01108092 66.96227161 65.71126951 68.72387695 67.40161133 C70.44059923 69.05204175 72.14121961 70.7176949 73.83984375 72.38671875 C74.63961891 73.14307869 74.63961891 73.14307869 75.45555115 73.91471863 C76.91381836 75.36206055 76.91381836 75.36206055 79 78 C78.96723825 81.39541271 77.83346856 82.18601639 75.49609375 84.796875 C74.48411419 85.78901182 73.46429231 86.77320132 72.4375 87.75 C71.65729492 88.50990234 71.65729492 88.50990234 70.86132812 89.28515625 C69.58089916 90.53034405 68.29132446 91.76611502 67 93 C64.14220983 91.70280076 62.08991464 90.3363174 59.88378906 88.11083984 C59.30348938 87.5303891 58.7231897 86.94993835 58.12530518 86.35189819 C57.51161072 85.72788116 56.89791626 85.10386414 56.265625 84.4609375 C55.62759949 83.82008209 54.98957397 83.17922668 54.33221436 82.51895142 C52.30005931 80.47562179 50.27497782 78.42544018 48.25 76.375 C46.8715547 74.9865214 45.49265364 73.5984951 44.11328125 72.2109375 C40.73688106 68.81251303 37.36680712 65.40792746 34 62 C31.14220983 63.29719924 29.08991464 64.6636826 26.88378906 66.88916016 C26.01333954 67.75983627 26.01333954 67.75983627 25.12530518 68.64810181 C24.51161072 69.27211884 23.89791626 69.89613586 23.265625 70.5390625 C22.62759949 71.17991791 21.98957397 71.82077332 21.33221436 72.48104858 C19.30005931 74.52437821 17.27497782 76.57455982 15.25 78.625 C13.8715547 80.0134786 12.49265364 81.4015049 11.11328125 82.7890625 C7.73688106 86.18748697 4.36680712 89.59207254 1 93 C-2.76363368 91.23800109 -5.32604243 89.03798466 -8.3125 86.125 C-9.21613281 85.26132812 -10.11976563 84.39765625 -11.05078125 83.5078125 C-13 81 -13 81 -12.80104065 79.04376221 C-11.8936557 76.72867487 -10.89713247 75.53440696 -9.13256836 73.79199219 C-8.53202133 73.19167175 -7.9314743 72.59135132 -7.31272888 71.97283936 C-6.66167679 71.33727112 -6.01062469 70.70170288 -5.33984375 70.046875 C-4.67537735 69.38665344 -4.01091095 68.72643188 -3.3263092 68.04620361 C-1.20364437 65.9403236 0.92921605 63.84511672 3.0625 61.75 C4.50393934 60.32360768 5.94470309 58.8965323 7.38476562 57.46875 C10.91538832 53.97119406 14.45519053 50.48317435 18 47 C14.16439367 42.41335656 10.19361444 38.05345444 5.9453125 33.84765625 C5.12569534 33.03016151 5.12569534 33.03016151 4.28952026 32.19615173 C2.57037942 30.48253882 0.84776796 28.77246556 -0.875 27.0625 C-2.05231638 25.89020796 -3.22940174 24.71768386 -4.40625 23.54492188 C-7.26817489 20.69393018 -10.13321457 17.84610385 -13 15 C-11.16307611 10.99625569 -8.50882084 8.28042066 -5.375 5.25 C-4.859375 4.74339844 -4.34375 4.23679687 -3.8125 3.71484375 C-2.54616661 2.47196098 -1.2736856 1.23534724 0 0 Z " fill="#000000" transform="translate(375,298)"/>
</svg>
